<svg width="200px" height="200px" xmlns="http://www.w3.org/2000/svg" xmlns:xlink="http://www.w3.org/1999/xlink" version="1.1" x="0px" y="0px" viewBox="0 0 2000 2500" style="enable-background:new 0 0 2000 2000;" xml:space="preserve"><g><path fill="grey" d="M1659.6,545.2c-15.7,0-28.5,12.7-28.5,28.5v109.9c0,15.7,12.7,28.5,28.5,28.5c15.7,0,28.5-12.7,28.5-28.5V573.6   C1688,557.9,1675.3,545.2,1659.6,545.2z"/><path fill="grey" d="M1367.5,655h-0.5v0h-255.9v0h-1.5c-15.7,0-28.4,12.7-28.4,28.4c0,15.7,12.7,28.4,28.4,28.4h1.5v0H1367v0h0.5   c15.7,0,28.4-12.7,28.4-28.4C1395.9,667.7,1383.2,655,1367.5,655z"/><path fill="grey" d="M817.4,545.2c-15.7,0-28.5,12.7-28.5,28.5v109.9c0,15.7,12.7,28.5,28.5,28.5s28.5-12.7,28.5-28.5V573.6   C845.8,557.9,833.1,545.2,817.4,545.2z"/><path fill="grey" d="M1961.9,1766.5c-1.3-0.2-2.6-0.3-3.9-0.3h-23.4v-74.4c0-13.1-10.6-23.7-23.7-23.7h-8.9v-29.6c0-3.7-0.9-7.3-2.5-10.6   l-29.8-59.5c-18.1-99.6-52-286.9-53.3-293.6c-0.1-0.3-0.1-0.6-0.2-0.8l-64.5-285.4l103.6-172.8c2.2-3.7,3.4-7.9,3.4-12.2V432.9   c0-9.4-5.5-17.9-14.1-21.7l-306.2-136.1v-81c0-21.8-17.7-39.6-39.6-39.6H964.7c-21.9,0-39.8,17.8-39.8,39.8c0,2.1,0.2,4.3,0.5,6.4   v74.5l-306.2,136c-8.6,3.8-14.1,12.3-14.1,21.7v148.7h-27.7v-47.5c0-13.1-10.6-23.7-23.7-23.7H392.9c-2.6,0-5.1,0.4-7.5,1.2   l-224.7,74.9c-8.1,2.7-14.1,9.5-15.8,17.8l-16.8,84H39.5C17.7,688.4,0,706.1,0,727.9s17.7,39.5,39.5,39.5h72.8l-8.6,42.8   c-1.4,7,0.4,14.2,4.9,19.7c4.5,5.5,11.2,8.7,18.3,8.7h145.3l64.2,64.2c4.4,4.4,10.5,6.9,16.8,6.9h200.3c13.1,0,23.7-10.6,23.7-23.7   v-47.5h44.8l93.7,156.3c-11.6,37.8-80.5,261.5-83.1,270.3c-0.1,0.4-0.2,0.7-0.3,1.1l-72,295.9l-32.9,65.7   c-1.7,3.3-2.5,6.9-2.5,10.6v29.6h-9c-13.1,0-23.7,10.6-23.7,23.7v74.3h-25.9h-3.2c-21.8,0-39.5,17.7-39.5,39.5   c0,21.8,17.7,39.5,39.5,39.5h3.2l389.1,0.2c0,0,0,0,0,0c1.9,0,3.9-0.2,5.7-0.7c19-3.1,33.2-19.7,33.2-39   c0-19.5-14.5-36.3-33.8-39.1c-0.4-0.1-0.8-0.1-1.2-0.2c-1.5-0.2-3-0.3-4.5-0.3h-22v-74.2c0-13.1-10.6-23.7-23.7-23.7h-9v-29.6   c0-3.7-0.9-7.3-2.5-10.6l-25.1-50.2l47.8-196.2l130.2,177.9l11.3,66.6c0.6,3.6,2.1,7.1,4.3,10.1l17.5,23.9l-7.2,5.3   c-5.1,3.7-8.5,9.3-9.4,15.5c-1,6.2,0.6,12.6,4.3,17.6l44,60l-19.7,14.4c-0.6,0.4-1.2,0.9-1.7,1.4c-17,13-20.5,37.4-7.8,54.7   c7.5,10.2,19.1,16.1,31.9,16.1c8.5,0,16.5-2.7,23.4-7.7l35.4-26l193.3-141.6c1-0.6,2-1.3,2.9-1.9l61.6-45.3l22.2-16.3   c0.4-0.3,0.9-0.7,1.3-1l1-0.7c8.5-6.3,14.1-15.4,15.7-25.9c1.6-10.4-1-20.9-7.2-29.4c-7.5-10.2-19.1-16.1-31.9-16.1   c-8.5,0-16.6,2.7-23.4,7.7l-20.5,15.1l-1.5,1.1l-43.9-60c-4.6-6.3-11.9-9.7-19.2-9.7c-4.9,0-9.8,1.5-14,4.6l-7.3,5.3l-17.6-23.9   c-2.2-3-5-5.4-8.3-7.1l-60-30.9l-153.5-209.8l-14.1-209.2h563.1l-68.8,252.8c-0.1,0.5-0.3,1.1-0.4,1.6   c-2.3,11.5-49.5,271.7-54.2,297.5l-29.8,59.5c-1.7,3.3-2.5,6.9-2.5,10.6v29.6h-8.9c-13.1,0-23.7,10.6-23.7,23.7v74.3h-25.7   c-0.1,0-0.2,0-0.3,0c-21.7,0.1-39.4,17.8-39.4,39.5c0,21.7,17.6,39.4,39.4,39.5c0.1,0,0.2,0,0.3,0l655.2-0.2   c1.3,0.1,2.6,0.2,3.8,0.2c21.8,0,39.5-17.7,39.5-39.5C2000,1784.7,1983,1767.2,1961.9,1766.5z M306.5,625.1   c7.7,0,13.9,6.2,13.9,13.9s-6.2,13.9-13.9,13.9c-7.7,0-13.9-6.2-13.9-13.9S298.9,625.1,306.5,625.1z M496.1,856H362.6l-15-17.9   h148.5V856z M498.3,759.5H194.6l20.6-103.2c8.2,42.9,46,75.5,91.3,75.5c28.6,0,55.5-13.2,73.1-35.6h118.7V759.5z M498.3,617.2   H396.8c-1.9-8-4.9-15.8-8.9-23l14.1-4.7h96.3V617.2z M605.1,759.5h-27.7v-98.8h27.7V759.5z M1822.7,1651.5v16.5l-117.2,0.1v-16.6   l17.6-35.2l82.1,0.1L1822.7,1651.5z M1691.9,1283.4C1692,1283.3,1692,1283.3,1691.9,1283.4c3.7-5.9,9.4-9.9,16.2-11.4c0,0,0,0,0,0   c1.9-0.4,3.8-0.6,5.7-0.6c4.9,0,9.6,1.4,13.7,4c0,0,0.1,0,0.1,0c5.8,3.6,9.8,9.3,11.3,16c0,0.1,0,0.2,0.1,0.3   c0.4,1.7,0.6,3.6,0.6,5.5c0,5.8-2,11.5-5.6,16.1c-3.6,4.6-8.8,7.9-14.5,9.2c0,0,0,0,0,0c-1.9,0.4-3.8,0.6-5.7,0.6   c-5.8,0-11.4-2-16-5.6c-4.6-3.7-7.9-8.9-9.2-14.6C1687.1,1296.1,1688.3,1289.2,1691.9,1283.4z M1683.9,1196.5l18.4-67.5l14.3,63.3   c-1,0-1.9,0-2.9,0c-7.7,0-15.4,0.9-23,2.5C1688.4,1195.2,1686.1,1195.8,1683.9,1196.5z M1757.4,1392.6l26.2,144.7h-52.6   l-24.5-135.4c2.5,0.2,4.9,0.3,7.4,0.3c7.7,0,15.4-0.9,23.1-2.6c0,0,0.1,0,0.1,0C1744.1,1397.9,1750.9,1395.6,1757.4,1392.6z    M1538.3,361.7l241.3,107.2v290.7h-241.3V361.7z M1178.5,233.6H1280v309.8h-101.5V233.6z M1004.5,233.6h94.9v309.8h-94.9V233.6z    M684.1,468.9l241.3-107.2v397.9H684.1V468.9z M685.3,1383.6c7.6,4.1,15.7,7.2,24.2,9.3c8.2,2,16.6,3,24.9,3c0.3,0,0.7,0,1,0   L701,1537.6l-53.3,0.1L685.3,1383.6z M604,1651.7l17.5-34.9l82.1-0.1l17.5,35.1v16.5H604V1651.7z M753.9,1766.2h-5.8   c-1.2,0-2.5,0.1-3.8,0.2l-171.6-0.1c-0.4,0-0.9-0.1-1.3-0.1v-19l182.5,0.1V1766.2z M760.3,1293.9l-0.3,1.1   c-0.4,1.4-0.7,2.8-0.9,4.2c-1.7,5.1-4.8,9.2-9.1,12.5c-4.4,3.3-9.9,5.1-15.4,5.1c-2.1,0-4.1-0.3-6.2-0.7c-6.7-1.6-12.4-5.8-16-11.7   c-3.6-5.9-4.6-12.8-3-19.4c0,0,0,0,0-0.1c2.8-11.6,13.1-19.7,25.1-19.7c2.3,0,4.1,0.2,5.9,0.7c0.1,0,0.1,0,0.2,0   c6.3,1.6,11.8,5.4,15.4,10.8C759.5,1281.7,761,1287.8,760.3,1293.9z M789,1201.2c-9.1-5.5-19.1-9.7-29.5-12.2   c-6.5-1.6-13.2-2.6-19.9-2.9l41.6-134.3c7.4,4.5,15.3,8.1,23.6,10.7h0c8.6,2.7,17,4.2,25.8,4.6L789,1201.2z M828.3,987   c-13.4-4.2-21.1-18.6-17.1-32.1c0.1-0.2,0.1-0.5,0.2-0.7c1.7-5.2,5-9.6,9.4-12.8c4.5-3.2,9.7-4.9,15.2-4.9c2.7,0,5.2,0.4,7.6,1.1   c13.6,4.2,21.2,18.8,17,32.4c-1.7,5.4-4.9,9.9-9.5,13.2c-4.3,3.2-9.9,5-15.2,5C833.4,988.2,830.8,987.8,828.3,987z M879.2,1284.2   c-4.5,3.3-9.8,5-15.3,5c-6.4,0-12.6-2.4-17.3-6.6l13.9-44.9c1.1-0.1,2.3-0.2,3.4-0.2c8,0,15.7,3.8,20.6,10.2   c0.2,0.3,0.4,0.5,0.6,0.8C893.1,1259.9,890.5,1275.9,879.2,1284.2z M1215.2,1588.7l11.2,15.4l-143.7,105.2   c-0.8,0.5-1.4,0.9-2.1,1.4l-1.6,1.2l-11.2-15.3L1215.2,1588.7z M1132.3,1530.9l9.8,13.3l-94.5,69.3l-9.8-13.3l-4.5-26.8l74.9-54.8   L1132.3,1530.9z M1044.8,1466.8l-41.8,30.6L903,1360.6c8.1-3.3,15.8-7.5,22.8-12.6l0,0c7.1-5.2,13.5-11.2,19-17.9L1044.8,1466.8z    M937.9,937.5c-3.8-15.6-11.1-30.2-21.5-42.6c-13-15.5-30.1-26.9-49.4-32.9c-10.1-3.1-20.5-4.7-31-4.7c-33.8,0-65.2,16.3-84.7,42.8   l-36.9-61.5h228.1l59.3,98.8H937.9z M1369.7,937.5h-275.6l-59.3-98.8H1429L1369.7,937.5z M1459.3,759.5h-454.8V622.5h454.8V759.5z    M1459.3,543.3h-100.2V233.6h100.2V543.3z M1504.1,1392.9c5.1,2.4,10.5,4.3,15.9,5.7c0,0,0,0,0,0c9,2.4,18.3,3.7,27.5,3.7   c2.5,0,4.9-0.1,7.4-0.3l-24.5,135.3h-52.6L1504.1,1392.9z M1522.1,1293.5c0-0.3,0.1-0.6,0.1-0.9c0.1-0.6,0.3-1.3,0.5-2.2   c1.9-6.7,6.2-12.2,12.1-15.6c0,0,0.1-0.1,0.1-0.1c3.8-2.2,8.2-3.4,12.6-3.4c2.2,0,4.5,0.3,6.9,0.9c6.7,1.9,12.3,6.2,15.7,12.1   c3.4,5.9,4.3,12.9,2.5,19.7c-3,11.2-13.3,19-25,19c-2.1,0-4.4-0.3-6.8-0.9c-6.7-1.9-12.3-6.2-15.7-12.1c0,0,0-0.1,0-0.1   C1522.3,1304.9,1521.2,1299.4,1522.1,1293.5z M1438.8,1651.7l17.6-35.1h82l17.6,35.3v16.5h-117.2L1438.8,1651.7z M1588.4,1766.2   h-182.5v-19l182.5,0.1V1766.2z M1575.4,1196.1c-0.1,0-0.1,0-0.2-0.1c-8.5-2.3-17.1-3.5-25.7-3.7l37.4-137   c7.6,4.3,15.6,7.6,24.1,9.9c0,0,0,0,0.1,0c8.4,2.3,17.1,3.5,25.7,3.7l-37.4,137.1C1591.8,1201.8,1583.8,1198.5,1575.4,1196.1z    M1630.6,1624.5l-26.1-52.2l26.2-144.7l26.1,144.5L1630.6,1624.5z M1663.4,970.9c-3.1,11.2-13.3,19-25,19c-2.3,0-4.6-0.3-6.8-0.9   c-13.8-3.8-21.9-18-18.2-31.7c1.6-5.6,4.8-10.5,9.3-13.8c4.7-3.4,10.1-5.3,15.7-5.3c2.2,0,4.4,0.3,6.8,0.9   C1659,942.9,1667.1,957.1,1663.4,970.9z M1638.5,859.1c-47.2,0-88.8,31.8-101.3,77.3l-0.3,1.1h-75.1l59.3-98.8h228.1l-33,55   c-13.4-14.9-30.7-25.6-50.2-30.8C1657,860.4,1647.7,859.1,1638.5,859.1z M1855.5,1766.1l-182.5,0.1v-19l182.5-0.1V1766.1z"/></g><text x="0" y="2015" fill="#000000" font-size="5px" font-weight="bold" font-family="'Helvetica Neue', Helvetica, Arial-Unicode, Arial, Sans-serif"></text><text x="0" y="2020" fill="#000000" font-size="5px" font-weight="bold" font-family="'Helvetica Neue', Helvetica, Arial-Unicode, Arial, Sans-serif"></text></svg>